<?xml version="1.0" standalone="no"?>
<!DOCTYPE svg PUBLIC "-//W3C//DTD SVG 20010904//EN"
 "http://www.w3.org/TR/2001/REC-SVG-20010904/DTD/svg10.dtd">
<svg version="1.0" xmlns="http://www.w3.org/2000/svg"
 width="512.000000pt" height="512.000000pt" viewBox="0 0 512.000000 512.000000"
 preserveAspectRatio="xMidYMid meet">
<metadata>
Created by potrace 1.14, written by Peter Selinger 2001-2017
</metadata>
<g transform="translate(0.000000,512.000000) scale(0.100000,-0.100000)"
fill="#000000" stroke="none">
<path d="M2510 4149 c-201 -16 -402 -118 -577 -294 l-92 -92 -38 40 c-95 97
-247 181 -400 219 -106 26 -331 31 -428 9 -216 -48 -378 -136 -517 -279 -180
-185 -256 -381 -246 -636 8 -205 69 -347 208 -486 117 -116 241 -179 398 -201
82 -12 197 0 273 26 l40 15 -43 -49 c-24 -27 -110 -124 -191 -216 -82 -92
-145 -171 -140 -175 4 -4 46 -15 93 -24 176 -36 522 -129 705 -191 293 -98
479 -185 645 -304 263 -189 409 -268 627 -341 332 -110 707 -130 852 -44 17
10 31 21 31 25 0 4 -18 71 -41 149 -22 78 -38 144 -36 146 2 3 26 0 52 -6 54
-12 235 -26 235 -18 0 3 -35 18 -77 33 -115 41 -288 125 -373 180 -122 80
-239 207 -379 410 -68 99 -149 209 -180 244 -135 154 -315 248 -511 266 l-65
6 102 -50 c198 -96 298 -187 438 -401 154 -237 173 -264 230 -332 30 -37 88
-95 128 -128 74 -62 228 -148 305 -171 24 -7 47 -20 51 -28 5 -9 11 -69 15
-133 l6 -116 -29 -7 c-63 -14 -288 22 -461 74 -289 86 -488 190 -760 395 -291
220 -731 372 -1270 441 -68 9 -126 17 -127 19 -1 1 14 29 34 61 20 33 65 110
101 170 35 61 69 113 75 117 49 30 376 42 547 18 200 -27 443 -99 640 -191
117 -54 109 -42 -17 27 -252 138 -538 227 -827 257 l-119 12 79 34 c171 74
107 65 -289 -38 -261 -68 -441 -28 -604 135 -114 115 -163 237 -163 408 0 387
337 704 779 732 254 16 473 -68 656 -251 98 -98 169 -206 159 -240 -6 -19 -5
-19 11 -4 16 16 16 20 0 75 -22 75 -66 163 -122 242 -25 35 -41 67 -37 71 74
64 218 156 309 196 280 123 572 86 759 -98 120 -117 138 -180 141 -472 3 -237
11 -287 62 -391 54 -111 197 -212 348 -245 99 -22 279 -15 455 16 113 21 189
29 281 29 l125 1 76 -38 c278 -137 416 -572 288 -904 -82 -212 -287 -381 -560
-459 l-85 -24 80 5 c205 12 386 96 541 250 77 76 98 105 137 185 64 130 79
191 84 352 4 104 1 156 -12 219 -51 256 -195 464 -385 558 -117 57 -206 74
-350 68 -63 -3 -171 -16 -240 -28 -179 -32 -372 -32 -454 0 -76 30 -128 78
-156 143 -19 45 -24 84 -36 283 -14 251 -24 300 -80 402 -128 231 -397 365
-684 342z"/>
</g>
</svg>
